{
  "accessors": [
    {
      "bufferView": 2,
      "componentType": 5126,
      "count": 23244,
      "max": [
        0.7361593246459961,
        2.708953857421875,
        2.340989112854004
      ],
      "min": [
        -0.06161902844905853,
        -2.708953857421875,
        -2.3271541595458984
      ],
      "type": "VEC3"
    },
    {
      "bufferView": 2,
      "byteOffset": 278928,
      "componentType": 5126,
      "count": 23244,
      "max": [
        1.0,
        1.0,
        1.0
      ],
      "min": [
        -1.0,
        -1.0,
        -1.0
      ],
      "type": "VEC3"
    },
    {
      "bufferView": 1,
      "componentType": 5126,
      "count": 23244,
      "max": [
        1.5060369968414307,
        1.0038243532180786
      ],
      "min": [
        0.0,
        -0.0018721226369962096
      ],
      "type": "VEC2"
    },
    {
      "bufferView": 0,
      "componentType": 5125,
      "count": 75609,
      "type": "SCALAR"
    },
    {
      "bufferView": 2,
      "byteOffset": 557856,
      "componentType": 5126,
      "count": 36449,
      "max": [
        0.13688454031944275,
        2.6419856548309326,
        2.0533101558685303
      ],
      "min": [
        -0.009939614683389664,
        -2.6300368309020996,
        -2.3121337890625
      ],
      "type": "VEC3"
    },
    {
      "bufferView": 2,
      "byteOffset": 995244,
      "componentType": 5126,
      "count": 36449,
      "max": [
        1.0,
        1.0,
        1.0
      ],
      "min": [
        -1.0,
        -1.0,
        -1.0
      ],
      "type": "VEC3"
    },
    {
      "bufferView": 1,
      "byteOffset": 185952,
      "componentType": 5126,
      "count": 36449,
      "max": [
        1.0020244121551514,
        1.0
      ],
      "min": [
        -0.00202428107149899,
        0.0
      ],
      "type": "VEC2"
    },
    {
      "bufferView": 0,
      "byteOffset": 302436,
      "componentType": 5125,
      "count": 64170,
      "type": "SCALAR"
    },
    {
      "bufferView": 2,
      "byteOffset": 1432632,
      "componentType": 5126,
      "count": 1991,
      "max": [
        0.14438094198703766,
        2.6191694736480713,
        2.259364128112793
      ],
      "min": [
        0.023203494027256966,
        -2.1245017051696777,
        -2.2893176078796387
      ],
      "type": "VEC3"
    },
    {
      "bufferView": 2,
      "byteOffset": 1456524,
      "componentType": 5126,
      "count": 1991,
      "max": [
        1.0,
        1.0,
        1.0
      ],
      "min": [
        -1.0,
        -1.0,
        -1.0
      ],
      "type": "VEC3"
    },
    {
      "bufferView": 1,
      "byteOffset": 477544,
      "componentType": 5126,
      "count": 1991,
      "max": [
        1.0,
        0.49000000953674316
      ],
      "min": [
        0.0,
        0.0
      ],
      "type": "VEC2"
    },
    {
      "bufferView": 0,
      "byteOffset": 559116,
      "componentType": 5125,
      "count": 4653,
      "type": "SCALAR"
    },
    {
      "bufferView": 2,
      "byteOffset": 1480416,
      "componentType": 5126,
      "count": 24,
      "max": [
        0.04439220204949379,
        1.482332706451416,
        0.37582632899284363
      ],
      "min": [
        0.023422131314873695,
        0.5485548377037048,
        -0.5150836706161499
      ],
      "type": "VEC3"
    },
    {
      "bufferView": 2,
      "byteOffset": 1480704,
      "componentType": 5126,
      "count": 24,
      "max": [
        1.0,
        1.0,
        1.0
      ],
      "min": [
        -1.0,
        -1.0,
        -1.0
      ],
      "type": "VEC3"
    },
    {
      "bufferView": 1,
      "byteOffset": 493472,
      "componentType": 5126,
      "count": 24,
      "max": [
        0.7471791505813599,
        0.7423340678215027
      ],
      "min": [
        0.4330340027809143,
        0.31218814849853516
      ],
      "type": "VEC2"
    },
    {
      "bufferView": 0,
      "byteOffset": 577728,
      "componentType": 5125,
      "count": 36,
      "type": "SCALAR"
    },
    {
      "bufferView": 2,
      "byteOffset": 1480992,
      "componentType": 5126,
      "count": 571,
      "max": [
        0.13365215063095093,
        2.388791799545288,
        2.3378775119781494
      ],
      "min": [
        0.018417924642562866,
        -2.67212176322937,
        -2.0775229930877686
      ],
      "type": "VEC3"
    },
    {
      "bufferView": 2,
      "byteOffset": 1487844,
      "componentType": 5126,
      "count": 571,
      "max": [
        1.0,
        1.0,
        1.0
      ],
      "min": [
        -1.0,
        -1.0,
        -1.0
      ],
      "type": "VEC3"
    },
    {
      "bufferView": 1,
      "byteOffset": 493664,
      "componentType": 5126,
      "count": 571,
      "max": [
        0.875,
        1.0
      ],
      "min": [
        0.125,
        0.0
      ],
      "type": "VEC2"
    },
    {
      "bufferView": 0,
      "byteOffset": 577872,
      "componentType": 5125,
      "count": 1461,
      "type": "SCALAR"
    },
    {
      "bufferView": 2,
      "byteOffset": 1494696,
      "componentType": 5126,
      "count": 172,
      "max": [
        0.5261871814727783,
        2.2124667167663574,
        2.349461793899536
      ],
      "min": [
        0.3958703279495239,
        2.0909035205841064,
        2.23660945892334
      ],
      "type": "VEC3"
    },
    {
      "bufferView": 2,
      "byteOffset": 1496760,
      "componentType": 5126,
      "count": 172,
      "max": [
        0.994472086429596,
        0.9958068132400513,
        1.1980635008512763e-06
      ],
      "min": [
        -0.9944722652435303,
        -0.9958052635192871,
        -1.0
      ],
      "type": "VEC3"
    },
    {
      "bufferView": 1,
      "byteOffset": 498232,
      "componentType": 5126,
      "count": 172,
      "max": [
        1.0130336284637451,
        1.0
      ],
      "min": [
        0.0,
        0.01000000536441803
      ],
      "type": "VEC2"
    },
    {
      "bufferView": 0,
      "byteOffset": 583716,
      "componentType": 5125,
      "count": 318,
      "type": "SCALAR"
    },
    {
      "bufferView": 2,
      "byteOffset": 1498824,
      "componentType": 5126,
      "count": 2356,
      "max": [
        0.5508819222450256,
        2.241163969039917,
        2.3497304916381836
      ],
      "min": [
        0.10979343950748444,
        0.1616271734237671,
        2.2100157737731934
      ],
      "type": "VEC3"
    },
    {
      "bufferView": 2,
      "byteOffset": 1527096,
      "componentType": 5126,
      "count": 2356,
      "max": [
        1.0,
        1.0,
        1.0
      ],
      "min": [
        -1.0,
        -1.0,
        -6.07624997428502e-07
      ],
      "type": "VEC3"
    },
    {
      "bufferView": 1,
      "byteOffset": 499608,
      "componentType": 5126,
      "count": 2356,
      "max": [
        0.9344570636749268,
        0.8866690993309021
      ],
      "min": [
        0.08176994323730469,
        0.3940337896347046
      ],
      "type": "VEC2"
    },
    {
      "bufferView": 0,
      "byteOffset": 584988,
      "componentType": 5125,
      "count": 4188,
      "type": "SCALAR"
    },
    {
      "bufferView": 2,
      "byteOffset": 1555368,
      "componentType": 5126,
      "count": 13903,
      "max": [
        0.7382804751396179,
        2.4346272945404053,
        2.3596949577331543
      ],
      "min": [
        0.005143165588378906,
        0.008992195129394531,
        2.2100157737731934
      ],
      "type": "VEC3"
    },
    {
      "bufferView": 2,
      "byteOffset": 1722204,
      "componentType": 5126,
      "count": 13903,
      "max": [
        1.0,
        1.0,
        1.0
      ],
      "min": [
        -1.0,
        -1.0,
        -1.0
      ],
      "type": "VEC3"
    },
    {
      "bufferView": 1,
      "byteOffset": 518456,
      "componentType": 5126,
      "count": 13903,
      "max": [
        1.0096137523651123,
        0.6500862240791321
      ],
      "min": [
        0.002482861280441284,
        0.35139796137809753
      ],
      "type": "VEC2"
    },
    {
      "bufferView": 0,
      "byteOffset": 601740,
      "componentType": 5125,
      "count": 31644,
      "type": "SCALAR"
    },
    {
      "bufferView": 2,
      "byteOffset": 1889040,
      "componentType": 5126,
      "count": 243,
      "max": [
        2.9200000762939453,
        0.0,
        0.009000000543892384
      ],
      "min": [
        0.04000000283122063,
        0.0,
        -0.6910000443458557
      ],
      "type": "VEC3"
    },
    {
      "bufferView": 2,
      "byteOffset": 1891956,
      "componentType": 5126,
      "count": 243,
      "max": [
        0.0,
        1.0,
        0.0
      ],
      "min": [
        0.0,
        0.9999999403953552,
        0.0
      ],
      "type": "VEC3"
    },
    {
      "bufferView": 1,
      "byteOffset": 629680,
      "componentType": 5126,
      "count": 243,
      "max": [
        1.0,
        0.0
      ],
      "min": [
        0.0,
        0.0
      ],
      "type": "VEC2"
    },
    {
      "bufferView": 0,
      "byteOffset": 728316,
      "componentType": 5125,
      "count": 699,
      "type": "SCALAR"
    }
  ],
  "asset": {
    "extras": {
      "author": "Blue Lantern (https://sketchfab.com/genoris2)",
      "license": "CC-BY-4.0 (http://creativecommons.org/licenses/by/4.0/)",
      "source": "https://sketchfab.com/3d-models/maximus-vi-formula-524e256e1a004fdeb42ee3e769b85d0a",
      "title": "MAXIMUS VI Formula"
    },
    "generator": "Sketchfab-12.67.0",
    "version": "2.0"
  },
  "bufferViews": [
    {
      "buffer": 0,
      "byteLength": 731112,
      "name": "floatBufferViews",
      "target": 34963
    },
    {
      "buffer": 0,
      "byteLength": 631624,
      "byteOffset": 731112,
      "byteStride": 8,
      "name": "floatBufferViews",
      "target": 34962
    },
    {
      "buffer": 0,
      "byteLength": 1894872,
      "byteOffset": 1362736,
      "byteStride": 12,
      "name": "floatBufferViews",
      "target": 34962
    }
  ],
  "buffers": [
    {
      "byteLength": 3257608,
      "uri": "scene.bin"
    }
  ],
  "images": [
    {
      "uri": "textures/Material_baseColor.jpeg"
    },
    {
      "uri": "textures/Material.003_baseColor.jpeg"
    },
    {
      "uri": "textures/Material.025_baseColor.png"
    }
  ],
  "materials": [
    {
      "doubleSided": true,
      "name": "material_0",
      "pbrMetallicRoughness": {
        "metallicFactor": 0.0,
        "roughnessFactor": 0.6
      }
    },
    {
      "doubleSided": true,
      "name": "Material",
      "pbrMetallicRoughness": {
        "baseColorTexture": {
          "index": 0
        },
        "roughnessFactor": 0.408333
      }
    },
    {
      "doubleSided": true,
      "name": "Material.001",
      "pbrMetallicRoughness": {
        "baseColorFactor": [
          0.8,
          0.8,
          0.8,
          1.0
        ],
        "metallicFactor": 0.908333,
        "roughnessFactor": 0.216667
      }
    },
    {
      "doubleSided": true,
      "name": "Material.002",
      "pbrMetallicRoughness": {
        "baseColorFactor": [
          0.384374,
          0.0331889,
          0.0358442,
          1.0
        ],
        "metallicFactor": 0.0,
        "roughnessFactor": 0.5
      }
    },
    {
      "doubleSided": true,
      "name": "Material.003",
      "pbrMetallicRoughness": {
        "baseColorTexture": {
          "index": 1
        },
        "metallicFactor": 0.0,
        "roughnessFactor": 0.5
      }
    },
    {
      "doubleSided": true,
      "name": "Material.010",
      "pbrMetallicRoughness": {
        "baseColorFactor": [
          0.0236506,
          0.0236506,
          0.0236506,
          1.0
        ],
        "metallicFactor": 0.783333,
        "roughnessFactor": 0.308333
      }
    },
    {
      "doubleSided": true,
      "name": "Material.029",
      "pbrMetallicRoughness": {
        "baseColorFactor": [
          0.8,
          0.8,
          0.8,
          1.0
        ],
        "metallicFactor": 0.5,
        "roughnessFactor": 0.3
      }
    },
    {
      "doubleSided": true,
      "name": "Material.027",
      "pbrMetallicRoughness": {
        "baseColorFactor": [
          0.0,
          0.0,
          0.0,
          1.0
        ],
        "metallicFactor": 0.0
      }
    },
    {
      "doubleSided": true,
      "name": "Material.025",
      "pbrMetallicRoughness": {
        "baseColorTexture": {
          "index": 2
        },
        "metallicFactor": 0.0,
        "roughnessFactor": 0.5
      }
    }
  ],
  "meshes": [
    {
      "name": "Object_0",
      "primitives": [
        {
          "attributes": {
            "NORMAL": 1,
            "POSITION": 0,
            "TEXCOORD_0": 2
          },
          "indices": 3,
          "material": 1,
          "mode": 4
        }
      ]
    },
    {
      "name": "Object_1",
      "primitives": [
        {
          "attributes": {
            "NORMAL": 5,
            "POSITION": 4,
            "TEXCOORD_0": 6
          },
          "indices": 7,
          "material": 2,
          "mode": 4
        }
      ]
    },
    {
      "name": "Object_2",
      "primitives": [
        {
          "attributes": {
            "NORMAL": 9,
            "POSITION": 8,
            "TEXCOORD_0": 10
          },
          "indices": 11,
          "material": 3,
          "mode": 4
        }
      ]
    },
    {
      "name": "Object_3",
      "primitives": [
        {
          "attributes": {
            "NORMAL": 13,
            "POSITION": 12,
            "TEXCOORD_0": 14
          },
          "indices": 15,
          "material": 4,
          "mode": 4
        }
      ]
    },
    {
      "name": "Object_4",
      "primitives": [
        {
          "attributes": {
            "NORMAL": 17,
            "POSITION": 16,
            "TEXCOORD_0": 18
          },
          "indices": 19,
          "material": 5,
          "mode": 4
        }
      ]
    },
    {
      "name": "Object_5",
      "primitives": [
        {
          "attributes": {
            "NORMAL": 21,
            "POSITION": 20,
            "TEXCOORD_0": 22
          },
          "indices": 23,
          "material": 6,
          "mode": 4
        }
      ]
    },
    {
      "name": "Object_6",
      "primitives": [
        {
          "attributes": {
            "NORMAL": 25,
            "POSITION": 24,
            "TEXCOORD_0": 26
          },
          "indices": 27,
          "material": 7,
          "mode": 4
        }
      ]
    },
    {
      "name": "Object_7",
      "primitives": [
        {
          "attributes": {
            "NORMAL": 29,
            "POSITION": 28,
            "TEXCOORD_0": 30
          },
          "indices": 31,
          "material": 8,
          "mode": 4
        }
      ]
    },
    {
      "name": "Object_8",
      "primitives": [
        {
          "attributes": {
            "NORMAL": 33,
            "POSITION": 32,
            "TEXCOORD_0": 34
          },
          "indices": 35,
          "material": 0,
          "mode": 4
        }
      ]
    }
  ],
  "nodes": [
    {
      "children": [
        1
      ],
      "matrix": [
        1.0,
        -1.6081226229577296e-16,
        2.2204460492503128e-16,
        0.0,
        2.220446049250313e-16,
        -6.123232939436859e-17,
        -1.0,
        0.0,
        1.6081226229577292e-16,
        1.0,
        -6.123232939436859e-17,
        0.0,
        2.7755575615628914e-16,
        -1.1102230246251565e-15,
        4.4408920985006237e-16,
        1.0
      ],
      "name": "Sketchfab_model"
    },
    {
      "children": [
        2
      ],
      "name": "root"
    },
    {
      "children": [
        3,
        12
      ],
      "matrix": [
        1.0,
        0.0,
        0.0,
        0.0,
        0.0,
        2.220446049250313e-16,
        1.0,
        0.0,
        0.0,
        -1.0,
        2.220446049250313e-16,
        0.0,
        0.0,
        0.0,
        0.0,
        1.0
      ],
      "name": "GLTF_SceneRootNode"
    },
    {
      "children": [
        4,
        5,
        6,
        7,
        8,
        9,
        10,
        11
      ],
      "matrix": [
        1.0,
        0.0,
        0.0,
        0.0,
        0.0,
        1.0,
        0.0,
        0.0,
        0.0,
        0.0,
        1.0,
        0.0,
        0.0,
        1.655761957168579,
        2.529006242752075,
        1.0
      ],
      "name": "Cube_0"
    },
    {
      "mesh": 0,
      "name": "Object_4"
    },
    {
      "mesh": 1,
      "name": "Object_5"
    },
    {
      "mesh": 2,
      "name": "Object_6"
    },
    {
      "mesh": 3,
      "name": "Object_7"
    },
    {
      "mesh": 4,
      "name": "Object_8"
    },
    {
      "mesh": 5,
      "name": "Object_9"
    },
    {
      "mesh": 6,
      "name": "Object_10"
    },
    {
      "mesh": 7,
      "name": "Object_11"
    },
    {
      "children": [
        13
      ],
      "matrix": [
        -1.5222259008851324e-09,
        1.5222259462509995e-09,
        -0.05107742547988887,
        0.0,
        0.05107742547988887,
        -1.5222259008851324e-09,
        -1.5222259462509995e-09,
        0.0,
        -1.5222259462509995e-09,
        -0.05107742547988887,
        -1.5222259008851324e-09,
        0.0,
        0.05626702308654785,
        4.157419204711914,
        0.4134087860584259,
        1.0
      ],
      "name": "Text.002_4"
    },
    {
      "mesh": 8,
      "name": "Object_13"
    }
  ],
  "samplers": [
    {
      "magFilter": 9729,
      "minFilter": 9987,
      "wrapS": 10497,
      "wrapT": 10497
    }
  ],
  "scene": 0,
  "scenes": [
    {
      "name": "Sketchfab_Scene",
      "nodes": [
        0
      ]
    }
  ],
  "textures": [
    {
      "sampler": 0,
      "source": 0
    },
    {
      "sampler": 0,
      "source": 1
    },
    {
      "sampler": 0,
      "source": 2
    }
  ]
}
