{
  "accessors": [
    {
      "bufferView": 2,
      "componentType": 5126,
      "count": 1317,
      "max": [
        1.1771914958953857,
        0.11387491226196289,
        1.1956183910369873
      ],
      "min": [
        -1.1732935905456543,
        -0.04949742555618286,
        -1.1869399547576904
      ],
      "type": "VEC3"
    },
    {
      "bufferView": 2,
      "byteOffset": 15804,
      "componentType": 5126,
      "count": 1317,
      "max": [
        1.0,
        1.0,
        1.0
      ],
      "min": [
        -1.0,
        -1.0,
        -1.0
      ],
      "type": "VEC3"
    },
    {
      "bufferView": 1,
      "componentType": 5126,
      "count": 1317,
      "max": [
        0.9363853335380554,
        0.9439837336540222
      ],
      "min": [
        0.06257368624210358,
        0.058248281478881836
      ],
      "type": "VEC2"
    },
    {
      "bufferView": 0,
      "componentType": 5125,
      "count": 6210,
      "type": "SCALAR"
    },
    {
      "bufferView": 2,
      "byteOffset": 31608,
      "componentType": 5126,
      "count": 124,
      "max": [
        1.3213112354278564,
        -0.04499906301498413,
        1.3155156373977661
      ],
      "min": [
        -1.3236110210418701,
        -0.09052389860153198,
        -1.3294066190719604
      ],
      "type": "VEC3"
    },
    {
      "bufferView": 2,
      "byteOffset": 33096,
      "componentType": 5126,
      "count": 124,
      "max": [
        0.965928852558136,
        1.0,
        1.0
      ],
      "min": [
        -0.965928852558136,
        -1.0,
        -1.0
      ],
      "type": "VEC3"
    },
    {
      "bufferView": 1,
      "byteOffset": 10536,
      "componentType": 5126,
      "count": 124,
      "max": [
        0.9899632334709167,
        0.9885566234588623
      ],
      "min": [
        0.006692041177302599,
        0.005285382270812988
      ],
      "type": "VEC2"
    },
    {
      "bufferView": 0,
      "byteOffset": 24840,
      "componentType": 5125,
      "count": 360,
      "type": "SCALAR"
    },
    {
      "bufferView": 2,
      "byteOffset": 34584,
      "componentType": 5126,
      "count": 38,
      "max": [
        1.305438756942749,
        -0.04499906301498413,
        1.2996431589126587
      ],
      "min": [
        -1.3077385425567627,
        -0.09052389860153198,
        -1.313534140586853
      ],
      "type": "VEC3"
    },
    {
      "bufferView": 2,
      "byteOffset": 35040,
      "componentType": 5126,
      "count": 38,
      "max": [
        0.0,
        1.0,
        0.0
      ],
      "min": [
        0.0,
        -1.0,
        0.0
      ],
      "type": "VEC3"
    },
    {
      "bufferView": 1,
      "byteOffset": 11528,
      "componentType": 5126,
      "count": 38,
      "max": [
        0.9840622544288635,
        0.9839252829551697
      ],
      "min": [
        0.012592753395438194,
        0.009916543960571289
      ],
      "type": "VEC2"
    },
    {
      "bufferView": 0,
      "byteOffset": 26280,
      "componentType": 5125,
      "count": 102,
      "type": "SCALAR"
    },
    {
      "bufferView": 2,
      "byteOffset": 35496,
      "componentType": 5126,
      "count": 65533,
      "max": [
        1.2803325653076172,
        -0.043958067893981934,
        1.015295147895813
      ],
      "min": [
        -1.3077385425567627,
        -0.09253475815057755,
        -1.313534140586853
      ],
      "type": "VEC3"
    },
    {
      "bufferView": 2,
      "byteOffset": 821892,
      "componentType": 5126,
      "count": 65533,
      "max": [
        1.0,
        1.0,
        1.0
      ],
      "min": [
        -1.0,
        -1.0,
        -1.0
      ],
      "type": "VEC3"
    },
    {
      "bufferView": 1,
      "byteOffset": 11832,
      "componentType": 5126,
      "count": 65533,
      "max": [
        0.9450302124023438,
        1.0
      ],
      "min": [
        0.012592753395438194,
        0.009916603565216064
      ],
      "type": "VEC2"
    },
    {
      "bufferView": 0,
      "byteOffset": 26688,
      "componentType": 5125,
      "count": 113907,
      "type": "SCALAR"
    },
    {
      "bufferView": 2,
      "byteOffset": 1608288,
      "componentType": 5126,
      "count": 20203,
      "max": [
        1.2803325653076172,
        -0.08941753953695297,
        1.2345043420791626
      ],
      "min": [
        -1.2504574060440063,
        -0.09253478050231934,
        -0.3801993131637573
      ],
      "type": "VEC3"
    },
    {
      "bufferView": 2,
      "byteOffset": 1850724,
      "componentType": 5126,
      "count": 20203,
      "max": [
        1.0,
        1.0,
        1.0
      ],
      "min": [
        -1.0,
        -1.0,
        -1.0
      ],
      "type": "VEC3"
    },
    {
      "bufferView": 1,
      "byteOffset": 536096,
      "componentType": 5126,
      "count": 20203,
      "max": [
        0.875,
        1.0
      ],
      "min": [
        0.125,
        0.031048893928527832
      ],
      "type": "VEC2"
    },
    {
      "bufferView": 0,
      "byteOffset": 482316,
      "componentType": 5125,
      "count": 35355,
      "type": "SCALAR"
    },
    {
      "bufferView": 2,
      "byteOffset": 2093160,
      "componentType": 5126,
      "count": 19339,
      "max": [
        0.6346896290779114,
        0.11821836233139038,
        0.27508270740509033
      ],
      "min": [
        -0.7745258808135986,
        0.09813416004180908,
        -0.643356442451477
      ],
      "type": "VEC3"
    },
    {
      "bufferView": 2,
      "byteOffset": 2325228,
      "componentType": 5126,
      "count": 19339,
      "max": [
        1.0,
        1.0,
        1.0
      ],
      "min": [
        -1.0,
        -1.0,
        -1.0
      ],
      "type": "VEC3"
    },
    {
      "bufferView": 1,
      "byteOffset": 697720,
      "componentType": 5126,
      "count": 19339,
      "max": [
        0.734705924987793,
        0.6017672419548035
      ],
      "min": [
        0.21081896126270294,
        0.26033008098602295
      ],
      "type": "VEC2"
    },
    {
      "bufferView": 0,
      "byteOffset": 623736,
      "componentType": 5125,
      "count": 41778,
      "type": "SCALAR"
    },
    {
      "bufferView": 2,
      "byteOffset": 2557296,
      "componentType": 5126,
      "count": 1080,
      "max": [
        1.106128454208374,
        -0.03855258226394653,
        1.213580846786499
      ],
      "min": [
        -1.1062895059585571,
        -0.0458683967590332,
        0.3842969834804535
      ],
      "type": "VEC3"
    },
    {
      "bufferView": 2,
      "byteOffset": 2570256,
      "componentType": 5126,
      "count": 1080,
      "max": [
        0.9793028235435486,
        1.0,
        0.9793028235435486
      ],
      "min": [
        -0.9793028235435486,
        -1.0,
        -0.9793028235435486
      ],
      "type": "VEC3"
    },
    {
      "bufferView": 1,
      "byteOffset": 852432,
      "componentType": 5126,
      "count": 1080,
      "max": [
        0.909967303276062,
        0.9506615996360779
      ],
      "min": [
        0.08748316019773483,
        0.6423685550689697
      ],
      "type": "VEC2"
    },
    {
      "bufferView": 0,
      "byteOffset": 790848,
      "componentType": 5125,
      "count": 1620,
      "type": "SCALAR"
    }
  ],
  "asset": {
    "extras": {
      "author": "gioguarino12 (https://sketchfab.com/gioguarino12)",
      "license": "CC-BY-4.0 (http://creativecommons.org/licenses/by/4.0/)",
      "source": "https://sketchfab.com/3d-models/amd-ryzen-7-7800x3d-209c4aada00e4b1790d8d274bac98779",
      "title": "AMD Ryzen 7 7800X3D"
    },
    "generator": "Sketchfab-16.29.0",
    "version": "2.0"
  },
  "bufferViews": [
    {
      "buffer": 0,
      "byteLength": 797328,
      "name": "floatBufferViews",
      "target": 34963
    },
    {
      "buffer": 0,
      "byteLength": 861072,
      "byteOffset": 797328,
      "byteStride": 8,
      "name": "floatBufferViews",
      "target": 34962
    },
    {
      "buffer": 0,
      "byteLength": 2583216,
      "byteOffset": 1658400,
      "byteStride": 12,
      "name": "floatBufferViews",
      "target": 34962
    }
  ],
  "buffers": [
    {
      "byteLength": 4241616,
      "uri": "scene.bin"
    }
  ],
  "materials": [
    {
      "doubleSided": true,
      "name": "Silver",
      "pbrMetallicRoughness": {
        "baseColorFactor": [
          0.377116,
          0.377116,
          0.377116,
          1.0
        ],
        "roughnessFactor": 0.448187
      }
    },
    {
      "doubleSided": true,
      "name": "LightGreen",
      "pbrMetallicRoughness": {
        "baseColorFactor": [
          0.00334646,
          0.0423115,
          0.0307135,
          1.0
        ],
        "metallicFactor": 0.595855,
        "roughnessFactor": 0.5
      }
    },
    {
      "doubleSided": true,
      "name": "DarkGreen",
      "pbrMetallicRoughness": {
        "baseColorFactor": [
          0.0,
          0.0109601,
          0.0103298,
          1.0
        ],
        "metallicFactor": 0.305699,
        "roughnessFactor": 0.5
      }
    },
    {
      "doubleSided": true,
      "name": "GoldCorner",
      "pbrMetallicRoughness": {
        "baseColorFactor": [
          0.913093,
          0.693873,
          0.246202,
          1.0
        ],
        "roughnessFactor": 0.173575
      }
    },
    {
      "doubleSided": true,
      "name": "Material",
      "pbrMetallicRoughness": {
        "baseColorFactor": [
          0.0856111,
          0.0856111,
          0.0856111,
          1.0
        ],
        "roughnessFactor": 0.303109
      }
    },
    {
      "doubleSided": true,
      "name": "TinySilverThings",
      "pbrMetallicRoughness": {
        "baseColorFactor": [
          0.8,
          0.8,
          0.8,
          1.0
        ],
        "roughnessFactor": 0.0595855
      }
    }
  ],
  "meshes": [
    {
      "name": "Object_0",
      "primitives": [
        {
          "attributes": {
            "NORMAL": 1,
            "POSITION": 0,
            "TEXCOORD_0": 2
          },
          "indices": 3,
          "material": 0,
          "mode": 4
        }
      ]
    },
    {
      "name": "Object_1",
      "primitives": [
        {
          "attributes": {
            "NORMAL": 5,
            "POSITION": 4,
            "TEXCOORD_0": 6
          },
          "indices": 7,
          "material": 1,
          "mode": 4
        }
      ]
    },
    {
      "name": "Object_2",
      "primitives": [
        {
          "attributes": {
            "NORMAL": 9,
            "POSITION": 8,
            "TEXCOORD_0": 10
          },
          "indices": 11,
          "material": 2,
          "mode": 4
        }
      ]
    },
    {
      "name": "Object_3",
      "primitives": [
        {
          "attributes": {
            "NORMAL": 13,
            "POSITION": 12,
            "TEXCOORD_0": 14
          },
          "indices": 15,
          "material": 3,
          "mode": 4
        }
      ]
    },
    {
      "name": "Object_4",
      "primitives": [
        {
          "attributes": {
            "NORMAL": 17,
            "POSITION": 16,
            "TEXCOORD_0": 18
          },
          "indices": 19,
          "material": 3,
          "mode": 4
        }
      ]
    },
    {
      "name": "Object_5",
      "primitives": [
        {
          "attributes": {
            "NORMAL": 21,
            "POSITION": 20,
            "TEXCOORD_0": 22
          },
          "indices": 23,
          "material": 4,
          "mode": 4
        }
      ]
    },
    {
      "name": "Object_6",
      "primitives": [
        {
          "attributes": {
            "NORMAL": 25,
            "POSITION": 24,
            "TEXCOORD_0": 26
          },
          "indices": 27,
          "material": 5,
          "mode": 4
        }
      ]
    }
  ],
  "nodes": [
    {
      "children": [
        1
      ],
      "matrix": [
        1.0,
        0.0,
        0.0,
        0.0,
        0.0,
        2.220446049250313e-16,
        -1.0,
        0.0,
        0.0,
        1.0,
        2.220446049250313e-16,
        0.0,
        0.0,
        0.0,
        0.0,
        1.0
      ],
      "name": "Sketchfab_model"
    },
    {
      "children": [
        2
      ],
      "name": "root"
    },
    {
      "children": [
        3
      ],
      "matrix": [
        1.0,
        0.0,
        0.0,
        0.0,
        0.0,
        2.220446049250313e-16,
        1.0,
        0.0,
        0.0,
        -1.0,
        2.220446049250313e-16,
        0.0,
        0.0,
        0.0,
        0.0,
        1.0
      ],
      "name": "GLTF_SceneRootNode"
    },
    {
      "children": [
        4,
        5,
        6,
        7,
        8,
        9,
        10
      ],
      "matrix": [
        1.0,
        0.0,
        0.0,
        0.0,
        0.0,
        1.0,
        0.0,
        0.0,
        0.0,
        0.0,
        1.0,
        0.0,
        0.023871799930930138,
        0.06776148080825806,
        -0.02074410952627659,
        1.0
      ],
      "name": "CPU_0"
    },
    {
      "mesh": 0,
      "name": "Object_4"
    },
    {
      "mesh": 1,
      "name": "Object_5"
    },
    {
      "mesh": 2,
      "name": "Object_6"
    },
    {
      "mesh": 3,
      "name": "Object_7"
    },
    {
      "mesh": 4,
      "name": "Object_8"
    },
    {
      "mesh": 5,
      "name": "Object_9"
    },
    {
      "mesh": 6,
      "name": "Object_10"
    }
  ],
  "scene": 0,
  "scenes": [
    {
      "name": "Sketchfab_Scene",
      "nodes": [
        0
      ]
    }
  ]
}
