{
  "accessors": [
    {
      "bufferView": 2,
      "componentType": 5126,
      "count": 215,
      "max": [
        0.6179975271224976,
        1.9384617644391255e-07,
        2.146286725997925
      ],
      "min": [
        -0.5718218088150024,
        -0.07595662772655487,
        -2.143099546432495
      ],
      "type": "VEC3"
    },
    {
      "bufferView": 2,
      "byteOffset": 2580,
      "componentType": 5126,
      "count": 215,
      "max": [
        0.9999994039535522,
        0.0,
        0.9999990463256836
      ],
      "min": [
        -0.9999994039535522,
        -1.0,
        -0.9999843835830688
      ],
      "type": "VEC3"
    },
    {
      "bufferView": 1,
      "componentType": 5126,
      "count": 215,
      "max": [
        0.9839860200881958,
        0.9595001935958862
      ],
      "min": [
        0.024549709632992744,
        0.04722630977630615
      ],
      "type": "VEC2"
    },
    {
      "bufferView": 0,
      "componentType": 5125,
      "count": 381,
      "type": "SCALAR"
    },
    {
      "bufferView": 2,
      "byteOffset": 5160,
      "componentType": 5126,
      "count": 163,
      "max": [
        0.6179975271224976,
        0.028369110077619553,
        2.146286725997925
      ],
      "min": [
        -0.5718218088150024,
        -0.010645433329045773,
        -2.143099546432495
      ],
      "type": "VEC3"
    },
    {
      "bufferView": 2,
      "byteOffset": 7116,
      "componentType": 5126,
      "count": 163,
      "max": [
        1.0,
        1.0,
        1.0
      ],
      "min": [
        -1.0,
        -1.0,
        -1.0
      ],
      "type": "VEC3"
    },
    {
      "bufferView": 1,
      "byteOffset": 1720,
      "componentType": 5126,
      "count": 163,
      "max": [
        0.9714362621307373,
        0.6238672137260437
      ],
      "min": [
        0.031158845871686935,
        0.3692089319229126
      ],
      "type": "VEC2"
    },
    {
      "bufferView": 0,
      "byteOffset": 1524,
      "componentType": 5125,
      "count": 327,
      "type": "SCALAR"
    }
  ],
  "asset": {
    "extras": {
      "author": "PolyDavid (https://sketchfab.com/PolyDavid)",
      "license": "CC-BY-4.0 (http://creativecommons.org/licenses/by/4.0/)",
      "source": "https://sketchfab.com/3d-models/ssd-wd-sn7100-8287dfa4fd644cb4a044d4dce57968ae",
      "title": "SSD - WD SN7100"
    },
    "generator": "Sketchfab-17.15.0",
    "version": "2.0"
  },
  "bufferViews": [
    {
      "buffer": 0,
      "byteLength": 2832,
      "name": "floatBufferViews",
      "target": 34963
    },
    {
      "buffer": 0,
      "byteLength": 3024,
      "byteOffset": 2832,
      "byteStride": 8,
      "name": "floatBufferViews",
      "target": 34962
    },
    {
      "buffer": 0,
      "byteLength": 9072,
      "byteOffset": 5856,
      "byteStride": 12,
      "name": "floatBufferViews",
      "target": 34962
    }
  ],
  "buffers": [
    {
      "byteLength": 14928,
      "uri": "scene.bin"
    }
  ],
  "images": [
    {
      "uri": "textures/Material.002_baseColor.png"
    },
    {
      "uri": "textures/Material.001_baseColor.jpeg"
    }
  ],
  "materials": [
    {
      "doubleSided": true,
      "name": "Material.002",
      "pbrMetallicRoughness": {
        "baseColorTexture": {
          "index": 0
        },
        "metallicFactor": 0.361538
      }
    },
    {
      "doubleSided": true,
      "name": "Material.001",
      "pbrMetallicRoughness": {
        "baseColorTexture": {
          "index": 1
        },
        "metallicFactor": 0.261538,
        "roughnessFactor": 0.961538
      }
    }
  ],
  "meshes": [
    {
      "name": "Object_0",
      "primitives": [
        {
          "attributes": {
            "NORMAL": 1,
            "POSITION": 0,
            "TEXCOORD_0": 2
          },
          "indices": 3,
          "material": 0,
          "mode": 4
        }
      ]
    },
    {
      "name": "Object_1",
      "primitives": [
        {
          "attributes": {
            "NORMAL": 5,
            "POSITION": 4,
            "TEXCOORD_0": 6
          },
          "indices": 7,
          "material": 1,
          "mode": 4
        }
      ]
    }
  ],
  "nodes": [
    {
      "children": [
        1
      ],
      "matrix": [
        1.0,
        0.0,
        0.0,
        0.0,
        0.0,
        2.220446049250313e-16,
        -1.0,
        0.0,
        0.0,
        1.0,
        2.220446049250313e-16,
        0.0,
        0.0,
        0.0,
        0.0,
        1.0
      ],
      "name": "Sketchfab_model"
    },
    {
      "children": [
        2
      ],
      "name": "root"
    },
    {
      "children": [
        3
      ],
      "matrix": [
        1.0,
        0.0,
        0.0,
        0.0,
        0.0,
        2.220446049250313e-16,
        1.0,
        0.0,
        0.0,
        -1.0,
        2.220446049250313e-16,
        0.0,
        0.0,
        0.0,
        0.0,
        1.0
      ],
      "name": "GLTF_SceneRootNode"
    },
    {
      "children": [
        4,
        5
      ],
      "name": "Circle.003_0"
    },
    {
      "mesh": 0,
      "name": "Object_4"
    },
    {
      "mesh": 1,
      "name": "Object_5"
    }
  ],
  "samplers": [
    {
      "magFilter": 9729,
      "minFilter": 9987,
      "wrapS": 10497,
      "wrapT": 10497
    }
  ],
  "scene": 0,
  "scenes": [
    {
      "name": "Sketchfab_Scene",
      "nodes": [
        0
      ]
    }
  ],
  "textures": [
    {
      "sampler": 0,
      "source": 0
    },
    {
      "sampler": 0,
      "source": 1
    }
  ]
}
