{
  "asset": {
    "version": "2.0",
    "generator": "beta_project calibration fixture"
  },
  "scenes": [
    {
      "nodes": [
        0,
        1,
        2,
        3,
        4,
        5,
        6,
        7,
        8,
        9,
        10,
        11,
        12,
        13,
        14,
        15,
        16,
        17,
        18,
        19,
        20,
        21,
        22,
        23,
        24,
        25,
        26,
        27,
        28,
        29,
        30,
        31,
        32,
        33,
        34,
        35,
        36,
        37,
        38,
        39
      ]
    }
  ],
  "scene": 0,
  "nodes": [
    {
      "name": "corner post -1.25:-0.82",
      "mesh": 0,
      "translation": [
        -1.25,
        0,
        -0.82
      ],
      "scale": [
        0.08,
        3.2,
        0.08
      ]
    },
    {
      "name": "corner post -1.25:0.82",
      "mesh": 0,
      "translation": [
        -1.25,
        0,
        0.82
      ],
      "scale": [
        0.08,
        3.2,
        0.08
      ]
    },
    {
      "name": "corner post 1.25:-0.82",
      "mesh": 0,
      "translation": [
        1.25,
        0,
        -0.82
      ],
      "scale": [
        0.08,
        3.2,
        0.08
      ]
    },
    {
      "name": "corner post 1.25:0.82",
      "mesh": 0,
      "translation": [
        1.25,
        0,
        0.82
      ],
      "scale": [
        0.08,
        3.2,
        0.08
      ]
    },
    {
      "name": "horizontal x rail -1.6:-0.82",
      "mesh": 0,
      "translation": [
        0,
        -1.6,
        -0.82
      ],
      "scale": [
        2.58,
        0.08,
        0.08
      ]
    },
    {
      "name": "horizontal x rail -1.6:0.82",
      "mesh": 0,
      "translation": [
        0,
        -1.6,
        0.82
      ],
      "scale": [
        2.58,
        0.08,
        0.08
      ]
    },
    {
      "name": "horizontal z rail -1.25:-1.6",
      "mesh": 0,
      "translation": [
        -1.25,
        -1.6,
        0
      ],
      "scale": [
        0.08,
        0.08,
        1.72
      ]
    },
    {
      "name": "horizontal z rail 1.25:-1.6",
      "mesh": 0,
      "translation": [
        1.25,
        -1.6,
        0
      ],
      "scale": [
        0.08,
        0.08,
        1.72
      ]
    },
    {
      "name": "horizontal x rail 1.6:-0.82",
      "mesh": 0,
      "translation": [
        0,
        1.6,
        -0.82
      ],
      "scale": [
        2.58,
        0.08,
        0.08
      ]
    },
    {
      "name": "horizontal x rail 1.6:0.82",
      "mesh": 0,
      "translation": [
        0,
        1.6,
        0.82
      ],
      "scale": [
        2.58,
        0.08,
        0.08
      ]
    },
    {
      "name": "horizontal z rail -1.25:1.6",
      "mesh": 0,
      "translation": [
        -1.25,
        1.6,
        0
      ],
      "scale": [
        0.08,
        0.08,
        1.72
      ]
    },
    {
      "name": "horizontal z rail 1.25:1.6",
      "mesh": 0,
      "translation": [
        1.25,
        1.6,
        0
      ],
      "scale": [
        0.08,
        0.08,
        1.72
      ]
    },
    {
      "name": "motherboard tray visual plane",
      "mesh": 2,
      "translation": [
        -0.36,
        0.08,
        -0.68
      ],
      "scale": [
        1.58,
        2.05,
        0.035
      ]
    },
    {
      "name": "psu bay transparent volume",
      "mesh": 2,
      "translation": [
        0.48,
        -1.18,
        -0.34
      ],
      "scale": [
        1.12,
        0.58,
        0.86
      ]
    },
    {
      "name": "top radiator transparent volume",
      "mesh": 2,
      "translation": [
        0,
        1.18,
        -0.26
      ],
      "scale": [
        1.78,
        0.12,
        0.78
      ]
    },
    {
      "name": "rear expansion slot marker",
      "mesh": 3,
      "translation": [
        0.34,
        -0.48,
        -0.84
      ],
      "scale": [
        0.68,
        0.36,
        0.035
      ]
    },
    {
      "name": "front fan 1 top rail",
      "mesh": 1,
      "translation": [
        1.18,
        0.91,
        0.14
      ],
      "scale": [
        0.045,
        0.05,
        0.82
      ]
    },
    {
      "name": "front fan 1 bottom rail",
      "mesh": 1,
      "translation": [
        1.18,
        0.13,
        0.14
      ],
      "scale": [
        0.045,
        0.05,
        0.82
      ]
    },
    {
      "name": "front fan 1 left rail",
      "mesh": 1,
      "translation": [
        1.18,
        0.52,
        -0.25
      ],
      "scale": [
        0.045,
        0.82,
        0.05
      ]
    },
    {
      "name": "front fan 1 right rail",
      "mesh": 1,
      "translation": [
        1.18,
        0.52,
        0.53
      ],
      "scale": [
        0.045,
        0.82,
        0.05
      ]
    },
    {
      "name": "front fan 2 top rail",
      "mesh": 1,
      "translation": [
        1.18,
        0.39,
        0.14
      ],
      "scale": [
        0.045,
        0.05,
        0.82
      ]
    },
    {
      "name": "front fan 2 bottom rail",
      "mesh": 1,
      "translation": [
        1.18,
        -0.39,
        0.14
      ],
      "scale": [
        0.045,
        0.05,
        0.82
      ]
    },
    {
      "name": "front fan 2 left rail",
      "mesh": 1,
      "translation": [
        1.18,
        0,
        -0.25
      ],
      "scale": [
        0.045,
        0.82,
        0.05
      ]
    },
    {
      "name": "front fan 2 right rail",
      "mesh": 1,
      "translation": [
        1.18,
        0,
        0.53
      ],
      "scale": [
        0.045,
        0.82,
        0.05
      ]
    },
    {
      "name": "front fan 3 top rail",
      "mesh": 1,
      "translation": [
        1.18,
        -0.13,
        0.14
      ],
      "scale": [
        0.045,
        0.05,
        0.82
      ]
    },
    {
      "name": "front fan 3 bottom rail",
      "mesh": 1,
      "translation": [
        1.18,
        -0.91,
        0.14
      ],
      "scale": [
        0.045,
        0.05,
        0.82
      ]
    },
    {
      "name": "front fan 3 left rail",
      "mesh": 1,
      "translation": [
        1.18,
        -0.52,
        -0.25
      ],
      "scale": [
        0.045,
        0.82,
        0.05
      ]
    },
    {
      "name": "front fan 3 right rail",
      "mesh": 1,
      "translation": [
        1.18,
        -0.52,
        0.53
      ],
      "scale": [
        0.045,
        0.82,
        0.05
      ]
    },
    {
      "name": "top fan 1 front rail",
      "mesh": 1,
      "translation": [
        -0.42,
        1.18,
        0.12
      ],
      "scale": [
        0.78,
        0.045,
        0.05
      ]
    },
    {
      "name": "top fan 1 rear rail",
      "mesh": 1,
      "translation": [
        -0.42,
        1.18,
        -0.66
      ],
      "scale": [
        0.78,
        0.045,
        0.05
      ]
    },
    {
      "name": "top fan 1 left rail",
      "mesh": 1,
      "translation": [
        -0.81,
        1.18,
        -0.27
      ],
      "scale": [
        0.05,
        0.045,
        0.78
      ]
    },
    {
      "name": "top fan 1 right rail",
      "mesh": 1,
      "translation": [
        -0.02999999999999997,
        1.18,
        -0.27
      ],
      "scale": [
        0.05,
        0.045,
        0.78
      ]
    },
    {
      "name": "top fan 2 front rail",
      "mesh": 1,
      "translation": [
        0.42,
        1.18,
        0.12
      ],
      "scale": [
        0.78,
        0.045,
        0.05
      ]
    },
    {
      "name": "top fan 2 rear rail",
      "mesh": 1,
      "translation": [
        0.42,
        1.18,
        -0.66
      ],
      "scale": [
        0.78,
        0.045,
        0.05
      ]
    },
    {
      "name": "top fan 2 left rail",
      "mesh": 1,
      "translation": [
        0.02999999999999997,
        1.18,
        -0.27
      ],
      "scale": [
        0.05,
        0.045,
        0.78
      ]
    },
    {
      "name": "top fan 2 right rail",
      "mesh": 1,
      "translation": [
        0.81,
        1.18,
        -0.27
      ],
      "scale": [
        0.05,
        0.045,
        0.78
      ]
    },
    {
      "name": "rear fan top rail",
      "mesh": 1,
      "translation": [
        -1.18,
        0.81,
        -0.36
      ],
      "scale": [
        0.045,
        0.05,
        0.72
      ]
    },
    {
      "name": "rear fan bottom rail",
      "mesh": 1,
      "translation": [
        -1.18,
        0.03,
        -0.36
      ],
      "scale": [
        0.045,
        0.05,
        0.72
      ]
    },
    {
      "name": "rear fan left rail",
      "mesh": 1,
      "translation": [
        -1.18,
        0.42,
        -0.72
      ],
      "scale": [
        0.045,
        0.78,
        0.05
      ]
    },
    {
      "name": "rear fan right rail",
      "mesh": 1,
      "translation": [
        -1.18,
        0.42,
        0
      ],
      "scale": [
        0.045,
        0.78,
        0.05
      ]
    }
  ],
  "meshes": [
    {
      "primitives": [
        {
          "attributes": {
            "POSITION": 0,
            "NORMAL": 1
          },
          "indices": 2,
          "material": 0
        }
      ]
    },
    {
      "primitives": [
        {
          "attributes": {
            "POSITION": 0,
            "NORMAL": 1
          },
          "indices": 2,
          "material": 1
        }
      ]
    },
    {
      "primitives": [
        {
          "attributes": {
            "POSITION": 0,
            "NORMAL": 1
          },
          "indices": 2,
          "material": 2
        }
      ]
    },
    {
      "primitives": [
        {
          "attributes": {
            "POSITION": 0,
            "NORMAL": 1
          },
          "indices": 2,
          "material": 3
        }
      ]
    },
    {
      "primitives": [
        {
          "attributes": {
            "POSITION": 0,
            "NORMAL": 1
          },
          "indices": 2,
          "material": 4
        }
      ]
    },
    {
      "primitives": [
        {
          "attributes": {
            "POSITION": 0,
            "NORMAL": 1
          },
          "indices": 2,
          "material": 5
        }
      ]
    },
    {
      "primitives": [
        {
          "attributes": {
            "POSITION": 0,
            "NORMAL": 1
          },
          "indices": 2,
          "material": 6
        }
      ]
    }
  ],
  "materials": [
    {
      "name": "anodized dark frame",
      "pbrMetallicRoughness": {
        "baseColorFactor": [
          0.05,
          0.07,
          0.08,
          1
        ],
        "metallicFactor": 0.55,
        "roughnessFactor": 0.42
      }
    },
    {
      "name": "visible teal mount slots",
      "pbrMetallicRoughness": {
        "baseColorFactor": [
          0.08,
          0.8,
          0.72,
          0.62
        ],
        "metallicFactor": 0.25,
        "roughnessFactor": 0.55
      },
      "alphaMode": "BLEND",
      "doubleSided": true
    },
    {
      "name": "smoked transparent bays",
      "pbrMetallicRoughness": {
        "baseColorFactor": [
          0.34,
          0.43,
          0.5,
          0.24
        ],
        "metallicFactor": 0.05,
        "roughnessFactor": 0.68
      },
      "alphaMode": "BLEND",
      "doubleSided": true
    },
    {
      "name": "amber calibration marks",
      "pbrMetallicRoughness": {
        "baseColorFactor": [
          1,
          0.54,
          0.12,
          0.72
        ],
        "metallicFactor": 0.1,
        "roughnessFactor": 0.5
      },
      "alphaMode": "BLEND",
      "doubleSided": true
    },
    {
      "name": "calibration product body",
      "pbrMetallicRoughness": {
        "baseColorFactor": [
          0.12,
          0.16,
          0.2,
          1
        ],
        "metallicFactor": 0.15,
        "roughnessFactor": 0.58
      }
    },
    {
      "name": "calibration connector",
      "pbrMetallicRoughness": {
        "baseColorFactor": [
          0.93,
          0.56,
          0.18,
          1
        ],
        "metallicFactor": 0.2,
        "roughnessFactor": 0.48
      }
    },
    {
      "name": "calibration fan blades",
      "pbrMetallicRoughness": {
        "baseColorFactor": [
          0.12,
          0.78,
          0.9,
          0.72
        ],
        "metallicFactor": 0.1,
        "roughnessFactor": 0.45
      },
      "alphaMode": "BLEND",
      "doubleSided": true
    }
  ],
  "buffers": [
    {
      "uri": "data:application/octet-stream;base64,",
      "byteLength": 648
    }
  ],
  "bufferViews": [
    {
      "buffer": 0,
      "byteOffset": 0,
      "byteLength": 288,
      "target": 34962
    },
    {
      "buffer": 0,
      "byteOffset": 288,
      "byteLength": 288,
      "target": 34962
    },
    {
      "buffer": 0,
      "byteOffset": 576,
      "byteLength": 72,
      "target": 34963
    }
  ],
  "accessors": [
    {
      "bufferView": 0,
      "componentType": 5126,
      "count": 24,
      "type": "VEC3",
      "min": [
        -0.5,
        -0.5,
        -0.5
      ],
      "max": [
        0.5,
        0.5,
        0.5
      ]
    },
    {
      "bufferView": 1,
      "componentType": 5126,
      "count": 24,
      "type": "VEC3",
      "min": [
        -1,
        -1,
        -1
      ],
      "max": [
        1,
        1,
        1
      ]
    },
    {
      "bufferView": 2,
      "componentType": 5123,
      "count": 36,
      "type": "SCALAR",
      "min": [
        0
      ],
      "max": [
        23
      ]
    }
  ]
}
